<svg width="198" height="79" viewBox="0 0 198 79" fill="none" xmlns="http://www.w3.org/2000/svg">
<path d="M46.4689 5.93556C48.2386 3.77885 51.004 2.69983 53.7667 3.08811L189.21 22.1234C193.585 22.7383 196.633 26.7836 196.018 31.1589L190.451 70.7696C189.837 75.1449 185.791 78.1933 181.416 77.5784L45.8021 58.5191C43.1326 58.1439 40.8316 56.4495 39.6809 54.0117L29.9144 33.3198C28.5952 30.5248 29.004 27.2198 30.9646 24.8304L46.4689 5.93556Z" fill="#FDD93E"/>
<circle cx="39.6409" cy="30.3879" r="4" transform="rotate(8 39.6409 30.3879)" fill="#F8F8F8"/>
<path d="M68.386 47.61C67.4881 47.4838 66.7061 47.1854 66.0397 46.7147C65.3855 46.235 64.9044 45.6342 64.5965 44.9123C64.2887 44.1905 64.1941 43.407 64.3129 42.562C64.4316 41.717 64.7385 40.9899 65.2334 40.3809C65.7283 39.7718 66.3556 39.3322 67.1153 39.0619C67.887 38.7826 68.7218 38.7061 69.6196 38.8322C70.5175 38.9584 71.2935 39.2614 71.9478 39.7411C72.6035 40.2103 73.0853 40.8058 73.3932 41.5277C73.7011 42.2495 73.7956 43.033 73.6769 43.878C73.5581 44.723 73.2513 45.4501 72.7564 46.0591C72.2614 46.6682 71.6334 47.1131 70.8723 47.3939C70.1126 47.6641 69.2838 47.7362 68.386 47.61ZM68.671 45.5819C69.3048 45.671 69.8521 45.5325 70.3128 45.1664C70.7856 44.7912 71.0725 44.2445 71.1735 43.5262C71.2744 42.8079 71.1486 42.2086 70.796 41.7282C70.4555 41.2387 69.9684 40.9494 69.3346 40.8603C68.7008 40.7712 68.1475 40.9143 67.6747 41.2895C67.2034 41.6541 66.9172 42.1955 66.8163 42.9138C66.7153 43.6321 66.8404 44.2367 67.1915 44.7277C67.5441 45.2081 68.0372 45.4928 68.671 45.5819ZM82.543 42.8459L79.6594 42.4406L78.7464 48.9368L76.2905 48.5916L77.2035 42.0955L74.3199 41.6902L74.6049 39.6621L82.8281 40.8178L82.543 42.8459ZM97.3479 49.1759L95.5417 48.9221L95.2143 51.2512L92.7109 50.8994L93.0383 48.5703L87.065 47.7308L87.3077 46.0037L93.525 39.7037L96.2185 40.0823L90.4327 46.0713L93.4114 46.4899L93.7031 44.4143L96.1273 44.755L95.8356 46.8306L97.6418 47.0845L97.3479 49.1759ZM107.002 53.1017C106.083 52.9726 105.296 52.6304 104.642 52.0753C103.987 51.5201 103.514 50.7858 103.223 49.8723C102.943 48.9498 102.887 47.8917 103.055 46.6981C103.223 45.5045 103.567 44.5081 104.089 43.7089C104.623 42.9006 105.28 42.3199 106.063 41.9666C106.845 41.6134 107.695 41.5013 108.614 41.6305C109.533 41.7596 110.32 42.1018 110.974 42.6569C111.629 43.2121 112.096 43.9509 112.375 44.8735C112.667 45.787 112.729 46.8405 112.561 48.0341C112.394 49.2277 112.043 50.2287 111.509 51.0369C110.988 51.8361 110.336 52.4123 109.554 52.7656C108.771 53.1188 107.921 53.2309 107.002 53.1017ZM107.307 50.9311C107.983 51.0261 108.552 50.8098 109.014 50.2823C109.486 49.7563 109.808 48.8859 109.979 47.6712C110.149 46.4564 110.08 45.5311 109.771 44.8952C109.472 44.2608 108.985 43.8961 108.309 43.8011C107.644 43.7076 107.075 43.9239 106.602 44.4499C106.14 44.9774 105.824 45.8485 105.653 47.0633C105.483 48.278 105.546 49.2026 105.845 49.837C106.154 50.4728 106.642 50.8375 107.307 50.9311ZM117.756 54.6131C116.837 54.4839 116.05 54.1418 115.396 53.5866C114.741 53.0315 114.268 52.2971 113.976 51.3837C113.697 50.4611 113.641 49.403 113.808 48.2094C113.976 47.0158 114.321 46.0194 114.843 45.2202C115.376 44.412 116.034 43.8312 116.816 43.478C117.598 43.1247 118.449 43.0126 119.368 43.1418C120.287 43.271 121.074 43.6131 121.728 44.1683C122.382 44.7234 122.849 45.4623 123.129 46.3848C123.421 47.2983 123.483 48.3519 123.315 49.5455C123.147 50.7391 122.797 51.74 122.263 52.5483C121.741 53.3474 121.089 53.9237 120.307 54.2769C119.525 54.6302 118.675 54.7422 117.756 54.6131ZM118.061 52.4424C118.737 52.5374 119.306 52.3212 119.768 51.7936C120.24 51.2676 120.562 50.3972 120.732 49.1825C120.903 47.9678 120.834 47.0425 120.525 46.4066C120.226 45.7722 119.739 45.4075 119.063 45.3125C118.397 45.2189 117.828 45.4352 117.356 45.9612C116.894 46.4887 116.578 47.3599 116.407 48.5746C116.236 49.7893 116.3 50.7139 116.599 51.3483C116.908 51.9842 117.395 52.3489 118.061 52.4424ZM128.509 56.1244C127.59 55.9952 126.804 55.6531 126.149 55.0979C125.495 54.5428 125.022 53.8085 124.73 52.895C124.45 51.9724 124.394 50.9143 124.562 49.7207C124.73 48.5271 125.075 47.5307 125.596 46.7316C126.13 45.9233 126.788 45.3425 127.57 44.9893C128.352 44.636 129.203 44.524 130.122 44.6531C131.041 44.7823 131.827 45.1244 132.482 45.6796C133.136 46.2347 133.603 46.9736 133.883 47.8962C134.175 48.8097 134.237 49.8632 134.069 51.0568C133.901 52.2504 133.55 53.2513 133.017 54.0596C132.495 54.8588 131.843 55.435 131.061 55.7882C130.279 56.1415 129.428 56.2536 128.509 56.1244ZM128.814 53.9537C129.49 54.0487 130.059 53.8325 130.521 53.305C130.994 52.7789 131.315 51.9086 131.486 50.6938C131.657 49.4791 131.588 48.5538 131.278 47.9179C130.98 47.2835 130.493 46.9188 129.816 46.8238C129.151 46.7303 128.582 46.9465 128.11 47.4726C127.648 48.0001 127.331 48.8712 127.161 50.0859C126.99 51.3007 127.054 52.2252 127.352 52.8596C127.662 53.4955 128.149 53.8602 128.814 53.9537ZM145.833 49.5433C146.625 49.6546 147.317 49.9404 147.909 50.4007C148.514 50.8518 148.954 51.4361 149.23 52.1536C149.508 52.8604 149.585 53.6522 149.462 54.5289C149.339 55.4056 149.046 56.1507 148.582 56.7642C148.121 57.3672 147.536 57.8075 146.829 58.0851C146.135 58.3537 145.391 58.4323 144.599 58.321C143.511 58.1681 142.704 57.7046 142.177 56.9304L141.618 60.9073L139.146 60.5599L140.776 48.9619L143.137 49.2937L142.999 50.276C143.716 49.6227 144.66 49.3785 145.833 49.5433ZM144.456 56.2328C145.09 56.3219 145.637 56.1834 146.098 55.8173C146.571 55.4421 146.858 54.8954 146.959 54.1771C147.06 53.4588 146.934 52.8595 146.581 52.3791C146.241 51.8896 145.753 51.6003 145.12 51.5112C144.486 51.4221 143.933 51.5652 143.46 51.9404C142.999 52.3065 142.718 52.8487 142.617 53.5669C142.516 54.2852 142.636 54.8891 142.977 55.3786C143.329 55.859 143.822 56.1437 144.456 56.2328ZM160.101 51.6779L154.98 60.1839C154.451 61.1113 153.868 61.7349 153.23 62.0546C152.603 62.3758 151.883 62.4793 151.07 62.365C150.626 62.3026 150.198 62.1724 149.784 61.9742C149.37 61.776 149.043 61.5361 148.803 61.2546L149.953 59.6228C150.119 59.8185 150.317 59.981 150.547 60.1102C150.787 60.2409 151.028 60.3233 151.271 60.3575C151.609 60.405 151.896 60.3591 152.131 60.2197C152.364 60.091 152.592 59.8484 152.815 59.4918L152.858 59.4171L150.373 50.3106L152.924 50.6691L154.504 56.7886L157.725 51.3439L160.101 51.6779ZM166.077 53.1155C166.89 53.2298 167.58 53.499 168.145 53.9232C168.711 54.3367 169.116 54.8675 169.359 55.5156C169.612 56.1652 169.683 56.8861 169.572 57.6783C169.458 58.4917 169.155 59.187 168.665 59.7644C168.186 60.3327 167.569 60.7414 166.812 60.9905C166.057 61.229 165.23 61.2852 164.333 61.159C162.843 60.9497 161.738 60.3096 161.016 59.2387C160.306 58.1587 160.081 56.6945 160.34 54.846C160.581 53.1348 161.142 51.8241 162.024 50.914C162.918 49.9948 164.158 49.4851 165.745 49.385L169.915 49.147L169.949 51.3169L166.268 51.5266C165.269 51.5802 164.501 51.7954 163.964 52.1722C163.437 52.5505 163.074 53.1404 162.875 53.9419C163.301 53.5925 163.788 53.3485 164.335 53.21C164.884 53.0609 165.464 53.0294 166.077 53.1155ZM164.618 59.2441C165.252 59.3332 165.788 59.1984 166.226 58.8399C166.674 58.4829 166.943 57.9875 167.032 57.3537C167.123 56.7094 167 56.1696 166.662 55.7345C166.335 55.3007 165.855 55.0394 165.221 54.9503C164.577 54.8597 164.033 54.9771 163.588 55.3025C163.144 55.6278 162.877 56.1126 162.786 56.757C162.696 57.4013 162.822 57.9576 163.166 58.426C163.511 58.8838 163.995 59.1565 164.618 59.2441ZM171.456 62.0955C171.023 62.0346 170.679 61.8355 170.425 61.4982C170.171 61.1609 170.075 60.7704 170.137 60.3268C170.201 59.8726 170.4 59.5289 170.734 59.2959C171.07 59.0522 171.455 58.9608 171.888 59.0217C172.321 59.0826 172.665 59.2764 172.921 59.6032C173.178 59.9194 173.275 60.3046 173.211 60.7588C173.149 61.2024 172.949 61.5513 172.611 61.8055C172.274 62.0597 171.889 62.1564 171.456 62.0955Z" fill="black"/>
<path d="M82.1412 30.7143C81.1707 30.5779 80.3225 30.2419 79.5967 29.7063C78.8814 29.1628 78.3545 28.4856 78.0161 27.6746C77.6789 26.8543 77.5766 25.9729 77.7091 25.0301C77.8416 24.0874 78.1823 23.2729 78.7311 22.5866C79.2813 21.891 79.9791 21.3859 80.8244 21.0712C81.6711 20.7472 82.5796 20.6534 83.5501 20.7898C84.308 20.8963 84.983 21.1231 85.5751 21.4702C86.1685 21.8081 86.652 22.2578 87.0255 22.8192L86.0016 23.566C85.3792 22.6962 84.5228 22.1847 83.4322 22.0314C82.7112 21.9301 82.0369 22.0003 81.4092 22.2419C80.7814 22.4836 80.2609 22.8676 79.8477 23.3938C79.4449 23.9122 79.1942 24.5225 79.0955 25.225C78.9968 25.9274 79.0689 26.5879 79.3118 27.2064C79.5653 27.8169 79.9605 28.3249 80.4973 28.7302C81.0341 29.1355 81.663 29.3888 82.3839 29.4901C83.4653 29.6421 84.4302 29.3819 85.2787 28.7094L86.0571 29.7095C85.5433 30.1462 84.9494 30.4492 84.2753 30.6183C83.6104 30.7888 82.8991 30.8208 82.1412 30.7143ZM93.6887 25.9187L90.9991 25.5407L90.1301 31.7239L88.7992 31.5369L89.6682 25.3537L86.9787 24.9757L87.1423 23.8111L93.8524 24.7541L93.6887 25.9187ZM96.9911 32.773C96.2609 32.6704 95.6274 32.4164 95.0906 32.0111C94.5538 31.6058 94.1587 31.0978 93.9052 30.4873C93.6622 29.8688 93.5914 29.1991 93.6927 28.4782C93.794 27.7573 94.0461 27.1376 94.4488 26.6193C94.862 26.093 95.3819 25.7137 96.0083 25.4813C96.6361 25.2396 97.315 25.1701 98.0452 25.2727C98.7753 25.3753 99.4042 25.6287 99.9318 26.0327C100.47 26.4288 100.86 26.936 101.103 27.5545C101.357 28.1651 101.433 28.8308 101.332 29.5518C101.23 30.2727 100.973 30.8963 100.56 31.4225C100.157 31.9409 99.6418 32.3209 99.0141 32.5625C98.3956 32.8055 97.7212 32.8756 96.9911 32.773ZM97.1548 31.6085C97.6261 31.6747 98.0616 31.6275 98.4612 31.4669C98.8713 31.2983 99.2099 31.0349 99.477 30.6766C99.7455 30.309 99.9154 29.8711 99.9869 29.3628C100.058 28.8544 100.015 28.3912 99.857 27.9732C99.7003 27.5459 99.4474 27.1993 99.0983 26.9334C98.7585 26.6689 98.3529 26.5035 97.8815 26.4373C97.4102 26.371 96.9701 26.4176 96.5612 26.5769C96.1617 26.7375 95.823 27.0009 95.5454 27.3672C95.2782 27.7255 95.1089 28.1588 95.0375 28.6672C94.9661 29.1755 95.0087 29.6433 95.1654 30.0706C95.3327 30.49 95.5856 30.8366 95.9241 31.1103C96.2732 31.3762 96.6834 31.5422 97.1548 31.6085ZM103.77 26.148L105.101 26.335L104.349 31.6864L109.606 26.9682L110.813 27.1378L109.78 34.4855L108.449 34.2985L109.201 28.9471L103.957 33.6672L102.737 33.4957L103.77 26.148ZM121.867 28.6913L120.834 36.0391L119.628 35.8696L120.382 30.5043L117 34.652L116.417 34.5701L114.339 29.6409L113.583 35.0201L112.363 34.8486L113.396 27.5008L114.768 27.6937L116.955 33.0622L120.619 28.5159L121.867 28.6913ZM126.56 36.9286C125.83 36.826 125.196 36.572 124.659 36.1667C124.123 35.7614 123.727 35.2535 123.474 34.6429C123.231 34.0244 123.16 33.3547 123.262 32.6338C123.363 31.9129 123.615 31.2933 124.018 30.7749C124.431 30.2487 124.951 29.8693 125.577 29.6369C126.205 29.3952 126.884 29.3257 127.614 29.4283C128.344 29.531 128.973 29.7843 129.501 30.1883C130.039 30.5844 130.429 31.0917 130.672 31.7102C130.926 32.3207 131.002 32.9865 130.9 33.7074C130.799 34.4283 130.542 35.0519 130.129 35.5782C129.726 36.0965 129.211 36.4765 128.583 36.7181C127.964 36.9611 127.29 37.0313 126.56 36.9286ZM126.724 35.7641C127.195 35.8303 127.63 35.7831 128.03 35.6225C128.44 35.454 128.779 35.1905 129.046 34.8322C129.314 34.4647 129.484 34.0267 129.556 33.5184C129.627 33.01 129.584 32.5468 129.426 32.1288C129.269 31.7015 129.016 31.3549 128.667 31.0891C128.327 30.8245 127.922 30.6591 127.45 30.5929C126.979 30.5267 126.539 30.5732 126.13 30.7325C125.73 30.8931 125.392 31.1566 125.114 31.5228C124.847 31.8811 124.678 32.3145 124.606 32.8228C124.535 33.3311 124.577 33.7989 124.734 34.2263C124.901 34.6456 125.154 34.9922 125.493 35.266C125.842 35.5318 126.252 35.6978 126.724 35.7641ZM135.497 38.1846C134.748 38.0794 134.101 37.8235 133.555 37.4169C133.018 37.0116 132.623 36.5036 132.369 35.8931C132.117 35.2733 132.042 34.6029 132.143 33.882C132.244 33.1611 132.501 32.5421 132.913 32.0251C133.326 31.4988 133.846 31.1195 134.472 30.8871C135.109 30.6467 135.802 30.5791 136.551 30.6843C137.216 30.7779 137.789 30.995 138.269 31.3358C138.758 31.6779 139.11 32.1232 139.325 32.6718L138.222 33.1812C138.04 32.7975 137.79 32.4938 137.473 32.2701C137.156 32.0465 136.789 31.9054 136.373 31.847C135.893 31.7794 135.443 31.8246 135.025 31.9827C134.617 32.142 134.273 32.4048 133.996 32.771C133.728 33.1293 133.559 33.5627 133.488 34.071C133.415 34.5886 133.457 35.061 133.614 35.4883C133.781 35.9077 134.039 36.2503 134.388 36.5161C134.747 36.7832 135.166 36.9506 135.647 37.0181C136.063 37.0766 136.454 37.042 136.82 36.9145C137.187 36.7869 137.511 36.5638 137.791 36.2451L138.713 37.025C138.356 37.4931 137.894 37.8288 137.328 38.032C136.773 38.2273 136.162 38.2782 135.497 38.1846ZM146.477 33.3376L143.787 32.9596L142.918 39.1428L141.587 38.9557L142.456 32.7725L139.767 32.3945L139.93 31.23L146.64 32.173L146.477 33.3376ZM151.047 35.3371C151.979 35.4775 152.661 35.7901 153.092 36.2749C153.524 36.7597 153.686 37.381 153.58 38.1389C153.468 38.9337 153.114 39.5107 152.517 39.8697C151.93 40.2208 151.143 40.3223 150.155 40.1741L146.969 39.7121L148.001 32.3643L149.332 32.5513L148.983 35.0329L151.047 35.3371ZM150.187 39.1464C150.786 39.2401 151.256 39.1836 151.596 38.9769C151.945 38.7715 152.154 38.4239 152.223 37.934C152.291 37.4534 152.187 37.0808 151.914 36.8161C151.649 36.5527 151.208 36.3729 150.59 36.2766L148.847 36.0034L148.442 38.887L150.187 39.1464Z" fill="black" fill-opacity="0.56"/>
<path d="M37 29C32.4839 25.6507 19 17 1 21.3636" stroke="black" stroke-opacity="0.24"/>
</svg>
